<svg width="20.000000" height="20.000000" viewBox="0 0 20 20" fill="none" xmlns="http://www.w3.org/2000/svg" xmlns:xlink="http://www.w3.org/1999/xlink">
	<desc>
			Created with Pixso.
	</desc>
	<defs/>
	<path id="Vector" d="M20 18.9102C20 19.5098 19.5095 20 18.9101 20L13.7875 20L13.7875 12.2617L16.4033 12.2617L16.7847 9.26416L13.7875 9.26416L13.7875 7.35693C13.7875 6.48486 14.0055 5.88574 15.2589 5.88574L16.8392 5.88574L16.8392 3.16064C16.5668 3.10645 15.6403 3.05176 14.4959 3.05176C12.2071 3.05176 10.6267 4.46875 10.6267 7.02979L10.6267 9.26416L8.01089 9.26416L8.01089 12.2617L10.6267 12.2617L10.6267 20L1.0899 20C0.490448 20 0 19.5098 0 18.9102L0 1.08984C0 0.490234 0.490448 0 1.0899 0L18.9101 0C19.5095 0 20 0.490234 20 1.08984L20 18.9102Z" fill="#292929" fill-opacity="1.000000" fill-rule="nonzero"/>
</svg>
