<svg width="20.000000" height="20.000000" viewBox="0 0 20 20" fill="none" xmlns="http://www.w3.org/2000/svg" xmlns:xlink="http://www.w3.org/1999/xlink">
	<desc>
			Created with Pixso.
	</desc>
	<defs>
		<clipPath id="clip2_1219">
			<rect id="tv" width="20.000000" height="20.000000" fill="white" fill-opacity="0"/>
		</clipPath>
	</defs>
	<rect id="tv" width="20.000000" height="20.000000" fill="#FFFFFF" fill-opacity="0"/>
	<g clip-path="url(#clip2_1219)">
		<path id="Vector" d="M19.455 2.01611C18.6376 2.50684 17.7657 2.8335 16.8392 3.05176C16.0763 2.23389 15.0409 1.74365 13.842 1.74365C11.5532 1.74365 9.75476 3.65088 9.75476 5.93994C9.75476 6.2666 9.80927 6.59375 9.86377 6.9209C6.43051 6.70264 3.43323 5.01318 1.4169 2.45215C1.0899 3.05176 0.871948 3.81445 0.871948 4.57764C0.871948 6.04883 1.58038 7.30225 2.72479 8.06494C2.07083 8.06494 1.4169 7.84717 0.871948 7.52002L0.871948 7.62939C0.871948 9.64551 2.28882 11.3896 4.14169 11.771C3.81473 11.8799 3.43323 11.9346 3.05176 11.9346C2.7793 11.9346 2.50681 11.9346 2.28882 11.8799C2.8338 13.5693 4.30518 14.7681 6.10355 14.8228C4.68665 15.9673 2.94278 16.6211 0.980927 16.6211C0.653961 16.6211 0.326965 16.6211 0 16.5664C1.79837 17.7656 3.97821 18.4741 6.26703 18.4741C13.842 18.4741 17.9291 12.0435 17.9291 6.48486C17.9291 6.32129 17.9291 6.10352 17.9291 5.93994C18.7466 5.34033 19.455 4.63184 20 3.75977C19.2916 4.08691 18.4741 4.30518 17.6567 4.41406C18.4741 3.81445 19.1281 2.99707 19.455 2.01611Z" fill="#B3B3B3" fill-opacity="1.000000" fill-rule="nonzero"/>
	</g>
</svg>
