<svg width="20.000000" height="20.000000" viewBox="0 0 20 20" fill="none" xmlns="http://www.w3.org/2000/svg" xmlns:xlink="http://www.w3.org/1999/xlink">
	<desc>
			Created with Pixso.
	</desc>
	<defs>
		<clipPath id="clip2_1222">
			<rect id="in" width="20.000000" height="20.000000" fill="white" fill-opacity="0"/>
		</clipPath>
	</defs>
	<rect id="in" width="20.000000" height="20.000000" fill="#FFFFFF" fill-opacity="0"/>
	<g clip-path="url(#clip2_1222)">
		<path id="Vector" d="M17.6022 0L2.39783 0C1.0899 0 0 1.03564 0 2.34326L0 17.6567C0 18.9644 1.0899 20 2.39783 20L17.6022 20C18.9101 20 20 18.9644 20 17.6567L20 2.34326C20 1.03564 18.9101 0 17.6022 0ZM14.3869 3.10645C14.3869 2.7793 14.6594 2.50684 14.9864 2.50684L16.8937 2.50684C17.2207 2.50684 17.4932 2.7793 17.4932 3.10645L17.4932 4.95898C17.4932 5.28613 17.2207 5.55859 16.8937 5.55859L15.0409 5.55859C14.7139 5.55859 14.4414 5.28613 14.4414 4.95898L14.3869 3.10645ZM10.0273 6.1582C12.1526 6.1582 13.8965 7.84717 13.8965 9.97266C13.8965 12.0981 12.1526 13.7876 10.0273 13.7876C7.90192 13.7876 6.15805 12.0981 6.15805 9.97266C6.15805 7.90186 7.90192 6.1582 10.0273 6.1582ZM18.0927 17.4932C18.0927 17.8203 17.8202 18.0928 17.4932 18.0928L2.50681 18.0928C2.17984 18.0928 1.90735 17.8203 1.90735 17.4932L1.90735 8.12012L4.35968 8.12012C4.03268 8.61035 3.92371 9.48242 3.92371 10.0273C3.92371 13.3516 6.6485 16.0762 10.0273 16.0762C13.406 16.0762 16.1308 13.3516 16.1308 10.0273C16.1308 9.48242 16.0763 8.61035 15.6403 8.12012L18.1471 8.12012L18.0927 17.4932Z" fill="#B3B3B3" fill-opacity="1.000000" fill-rule="nonzero"/>
	</g>
</svg>
