<svg width="20.000000" height="20.000000" viewBox="0 0 20 20" fill="none" xmlns="http://www.w3.org/2000/svg" xmlns:xlink="http://www.w3.org/1999/xlink">
	<desc>
			Created with Pixso.
	</desc>
	<defs>
		<clipPath id="clip2_1228">
			<rect id="vk" width="20.000000" height="20.000000" fill="white" fill-opacity="0"/>
		</clipPath>
	</defs>
	<rect id="vk" width="20.000000" height="20.000000" fill="#FFFFFF" fill-opacity="0"/>
	<g clip-path="url(#clip2_1228)">
		<path id="Vector" d="M19.891 14.605C19.891 14.5503 19.8365 14.4961 19.8365 14.4961C19.5095 13.8965 18.8011 13.0791 17.8202 12.207C17.3842 11.771 17.1117 11.4985 17.0027 11.335C16.7847 11.0625 16.7303 10.79 16.8392 10.5176C16.9482 10.2998 17.2207 9.86377 17.7657 9.15527C18.0381 8.77393 18.2561 8.50146 18.4196 8.2832C19.6185 6.70312 20.1635 5.66748 20 5.23145L19.9455 5.12256C19.891 4.95898 19.782 4.90479 19.6185 4.8501C19.455 4.79541 19.2371 4.79541 18.9646 4.8501L15.9673 4.8501C15.9128 4.8501 15.8583 4.8501 15.7493 4.8501C15.6403 4.8501 15.6403 4.90479 15.6403 4.90479L15.5858 4.90479L15.5313 4.95898C15.4768 4.95898 15.4768 5.01367 15.4223 5.06836C15.3679 5.12256 15.3679 5.17725 15.3134 5.23145C14.9864 6.04883 14.6049 6.8667 14.2234 7.57471C13.951 8.01074 13.733 8.39258 13.515 8.71924C13.297 9.04639 13.1335 9.26416 12.97 9.42773C12.8065 9.59131 12.6975 9.7002 12.5886 9.80908C12.4796 9.91846 12.3706 9.91846 12.3161 9.91846C12.2616 9.91846 12.2071 9.86377 12.1526 9.86377C12.0436 9.80908 11.9891 9.7002 11.9346 9.59131C11.8801 9.48242 11.8256 9.37354 11.8256 9.20996C11.8256 9.04639 11.7711 8.88281 11.7711 8.77393C11.7711 8.66504 11.7711 8.50146 11.7711 8.2832C11.7711 8.06543 11.7711 7.90186 11.7711 7.84717C11.7711 7.57471 11.7711 7.30225 11.7711 6.97559C11.7711 6.64844 11.7711 6.43066 11.7711 6.26709C11.7711 6.10352 11.7711 5.88574 11.7711 5.66748C11.7711 5.44971 11.7711 5.28613 11.7166 5.17725C11.7166 5.06836 11.6621 4.95898 11.6076 4.8501C11.5531 4.74121 11.4986 4.63232 11.3896 4.57764C11.2806 4.52295 11.1717 4.46875 11.0627 4.41406C10.6812 4.30518 10.2452 4.30518 9.64578 4.30518C8.33789 4.30518 7.52045 4.35986 7.13898 4.57764C6.97546 4.63232 6.86649 4.74121 6.75751 4.90479C6.6485 5.06836 6.59399 5.12256 6.703 5.17725C7.13898 5.23145 7.41144 5.39502 7.57492 5.61328L7.62943 5.72217C7.68393 5.83105 7.73843 5.99463 7.79291 6.2124C7.84741 6.43066 7.84741 6.70312 7.90192 6.97559C7.95639 7.46582 7.95639 7.90186 7.90192 8.2832C7.84741 8.66504 7.84741 8.9375 7.79291 9.10059C7.73843 9.31885 7.73843 9.48242 7.62943 9.59131C7.57492 9.7002 7.52045 9.80908 7.52045 9.80908C7.52045 9.86377 7.46594 9.86377 7.46594 9.86377C7.35693 9.91846 7.30246 9.91846 7.19345 9.91846C7.08447 9.91846 6.97546 9.86377 6.86649 9.75488C6.703 9.646 6.59399 9.53662 6.43051 9.37354C6.26703 9.20996 6.10355 8.9917 5.94006 8.66504C5.77658 8.33789 5.55859 8.01074 5.34061 7.57471L5.17712 7.24805C5.06812 7.02979 4.90463 6.75732 4.74115 6.37598C4.57767 5.99463 4.41418 5.66748 4.25067 5.28613C4.1962 5.17725 4.08719 5.06836 3.97821 4.95898L3.92371 4.95898C3.8692 4.90479 3.81473 4.90479 3.76022 4.8501C3.70572 4.8501 3.59674 4.79541 3.54224 4.79541L0.708435 4.79541C0.38147 4.79541 0.163483 4.90479 0.0545044 5.01367L0.0545044 5.06836C0 5.12256 0 5.17725 0 5.23145C0 5.28613 0 5.39502 0.0545044 5.50391C0.490448 6.48486 0.926422 7.41162 1.4169 8.33789C1.90735 9.26416 2.34332 9.97266 2.67029 10.5176C3.05176 11.0625 3.37875 11.6074 3.76022 12.0981C4.14169 12.5884 4.35968 12.9155 4.52316 13.0244C4.63214 13.188 4.74115 13.2427 4.79565 13.3516L5.06812 13.624C5.2316 13.7876 5.50409 14.0054 5.77658 14.2236C6.10355 14.4414 6.43051 14.6592 6.86649 14.9316C7.24796 15.1499 7.73843 15.3677 8.22888 15.4771C8.77383 15.6401 9.26431 15.6948 9.75476 15.6401L10.9537 15.6401C11.1717 15.6401 11.3896 15.5312 11.4986 15.4224L11.5531 15.3677C11.6076 15.3135 11.6076 15.2588 11.6076 15.1499C11.6076 15.041 11.6621 14.9863 11.6621 14.8774C11.6621 14.605 11.6621 14.3325 11.7166 14.0601C11.7711 13.8418 11.8256 13.624 11.8801 13.5151C11.9346 13.4058 12.0436 13.2969 12.0981 13.188C12.2071 13.0791 12.2616 13.0791 12.2616 13.0244C12.3161 13.0244 12.3161 12.9702 12.3706 12.9702C12.5341 12.9155 12.752 12.9702 12.97 13.1333C13.188 13.2969 13.406 13.5151 13.624 13.7329C13.8419 13.9512 14.0599 14.2236 14.3324 14.5503C14.6049 14.8228 14.8774 15.0952 15.0409 15.2046L15.2589 15.3135C15.4223 15.4224 15.5858 15.4771 15.8038 15.5312C16.0218 15.5859 16.2398 15.6401 16.4033 15.5859L19.0736 15.5312C19.346 15.5312 19.564 15.4771 19.673 15.4224C19.8365 15.3135 19.891 15.2588 19.9455 15.1499C20 15.041 20 14.9316 19.9455 14.7686C19.9455 14.7686 19.9455 14.6592 19.891 14.605Z" fill="#B3B3B3" fill-opacity="1.000000" fill-rule="nonzero"/>
	</g>
</svg>
